<?xml version="1.0" encoding="UTF-8"?>
<svg id="Layer_1" data-name="Layer 1" xmlns="http://www.w3.org/2000/svg" viewBox="0 0 1089 1089">
  <defs>
    <style>
      .cls-1 {
        fill: #fff;
      }

      .cls-2 {
        fill: #025157;
      }
    </style>
  </defs>
  <rect class="cls-1" x="0" y="0" width="1089" height="1089" rx="540" ry="540"/>
  <g>
    <polygon class="cls-2" points="88.42 811.93 420.55 811.93 420.55 689.61 210.74 689.61 210.74 609.77 392.52 609.77 392.52 488.29 210.74 488.29 210.74 407.6 423.95 407.6 423.95 286.13 88.42 286.13 88.42 811.93"/>
    <path class="cls-2" d="M1020.38,503.6c-14.35-18.01-59.01-71.41-76.39-90.25,24.26-8.58,47.41-14.67,68.35-17.76,3-.45,5.07-3.22,4.62-6.22-.45-3-3.22-5.04-6.22-4.62-22.16,3.28-46.64,9.76-72.34,18.97-5.8-18.68-35.32-92.1-45.14-114.93-5.8-13.42-13.45-20.09-22.73-19.93-4.56,.1-8.93,2.14-12.31,5.74-4.18,4.43-6.5,10.74-6.28,16.9,.38,9.69,5.67,17.95,9.92,24.58,9.5,14.86,16.32,26.62,22.92,38,1.24,2.17,2.52,4.34,3.79,6.57-2.87-2.9-5.67-5.74-8.45-8.58-14.51-14.79-28.21-28.76-49.86-42.46-9.79-6.19-18.65-6.66-24.36-1.34-1.28,1.18-2.2,2.52-2.9,3.92-35.01-16.74-73.61-25.76-113.21-25.76-146.94,0-265.86,121.47-265.86,270.96s118.92,271.82,265.86,271.82c78.14,0,151.21-34.81,202.16-95.13l-68.64-42.72c-1.15,1.18-2.33,2.36-3.54,3.54-5.61,5.48-11.73,10.93-18.33,16.16-.48,.38-.96,.77-1.43,1.12-4.27,3.35-8.77,6.57-13.42,9.63-1.43,.96-2.87,1.88-4.34,2.77-.13,.1-.25,.16-.38,.22-9.6,5.87-19.93,11-30.96,14.95-3.54,1.24-7.49,2.49-11.83,3.73-.73,.22-1.47,.41-2.2,.61-2.23,.61-4.53,1.21-6.92,1.79-1.59,.41-3.22,.8-4.88,1.18-1.66,.38-3.35,.77-5.07,1.15-1.72,.38-3.47,.77-5.23,1.12-3.57,.73-7.21,1.47-10.93,2.17-1.88,.35-3.76,.7-5.67,1.05-.96,.16-1.91,.35-2.87,.51-1.94,.35-3.86,.67-5.83,.99-3.89,.67-7.87,1.27-11.86,1.88-2.01,.32-4.02,.61-6.03,.89-6.03,.89-12.11,1.69-18.17,2.45-2.01,.25-4.02,.48-6.06,.73-39.66,4.62-77.15,6.31-91.15,2.81-4.75-1.18-7.84-3.19-9.72-5.67-.96-1.24-1.59-2.61-2.01-4.08-.38-1.47-.57-3-.57-4.59,0-.54,.03-1.12,.06-1.66,.03-.35,.06-.67,.1-1.02,.03-.41,.1-.86,.16-1.27,.96-6.57,3.89-13.42,4.88-18.2,.13-.48,.19-.96,.26-1.4,.35-2.71-.19-4.49-2.61-4.81-11.35-1.4-7.11-16.67-7.11-16.67l6.76-12.43s-.61-.35-1.53-.96c-.51-.29-1.12-.67-1.75-1.12-1.05-.73-2.26-1.59-3.41-2.52-.51-.41-1.05-.86-1.53-1.31-.03,0-.03-.03-.03-.03-.51-.45-.99-.92-1.44-1.4-1.98-2.1-3.12-4.3-1.82-5.96,2.01-2.55,3.67-5.74,5-9.05,.29-.67,.54-1.34,.77-2.01,1.24-3.38,2.14-6.76,2.71-9.63,.13-.54,.26-1.08,.32-1.59,.38-2.1,.57-3.83,.57-4.88,0-.1-.03-.22-.1-.35-.35-.77-1.79-1.72-3.83-2.9-.54-.32-1.12-.67-1.72-.99-1.12-.64-2.33-1.27-3.63-1.98-.41-.22-.83-.45-1.24-.7-1.5-.83-3.06-1.72-4.62-2.68-.77-.45-1.5-.89-2.23-1.37-.73-.48-1.47-.99-2.17-1.5-.29-.19-.57-.38-.83-.61-3.76-2.74-6.92-5.9-8.22-9.34-.13-.26-.19-.48-.29-.73-.06-.19-.1-.41-.16-.61-.06-.32-.13-.61-.16-.92-.06-.41-.1-.83-.1-1.24,0-.7,.1-1.43,.29-2.2,.06-.38,.19-.77,.35-1.15,.51-1.34,1.31-2.74,2.52-4.14,.22-.26,.48-.54,.73-.83,.38-.41,.83-.86,1.27-1.27,1.85-1.72,3.76-3.76,5.67-6.03,.57-.67,1.18-1.4,1.75-2.14,.41-.51,.83-1.05,1.27-1.59,1.18-1.53,2.39-3.12,3.57-4.81,.54-.77,1.08-1.53,1.63-2.3,1.05-1.56,2.14-3.12,3.19-4.75,.51-.8,1.05-1.59,1.56-2.42,.54-.83,1.05-1.66,1.56-2.49,4.11-6.6,8.03-13.45,11.41-19.77,7.43-13.71,12.53-24.71,12.53-24.71l-9.53-19.64-9.09-18.71c.32-1.4,.67-2.84,1.05-4.24,.35-1.34,.73-2.68,1.15-4.02,.41-1.43,.89-2.87,1.37-4.27,.1-.32,.19-.67,.32-.99,.32-.86,.61-1.75,.96-2.61,.57-1.53,1.18-3.06,1.79-4.59,.54-1.31,1.12-2.65,1.69-3.95,.61-1.37,1.21-2.71,1.88-4.08,.61-1.34,1.27-2.68,1.98-4.02,3.89-7.75,8.42-15.3,13.33-22.51,1.47-2.2,2.97-4.37,4.56-6.47,1.53-2.1,3.09-4.18,4.69-6.22,3.95-5.1,8.07-9.92,12.21-14.44,.8-.89,1.63-1.79,2.49-2.65,.8-.89,1.63-1.75,2.49-2.58,.51-.57,1.05-1.12,1.63-1.66,.8-.8,1.56-1.59,2.36-2.33,2.04-2.01,4.05-3.89,6.06-5.64,.92-.83,1.85-1.66,2.74-2.42,1.95-1.66,3.86-3.22,5.74-4.66,.77-.61,1.56-1.18,2.3-1.72,.29-.22,.54-.41,.8-.61,.57-.41,1.18-.83,1.75-1.24,24.29-16.51,52.54-28.21,81.68-28.21,48.46,0,89.84,16.83,119.62,45.94,9.18,8.89,17.25,19.03,24.07,30.16-18.75,10.33-37.43,21.65-55.63,33.86-17.98,12.05-34.72,24.42-49.7,36.66-12.62,10.3-24.01,20.53-33.83,30.48-22.99,23.27-35.68,42.78-37.68,58.02-1.59,12.18,3.89,21.65,15.43,26.65,42.05,18.2,114.39,20.18,157.94-8.42,1.28-.83,2.52-1.69,3.73-2.58,24.1-17.5,36.85-43.77,36.85-76.29,0-34.27-7.72-66.41-22.22-93.95,20.5-10.87,41-20.44,60.96-28.47l-4.46,102.5c-.38,8.42-.89,19.93,5.1,29.17,6.12,9.44,17.12,13.65,25.12,16.71,2.45,.92,5.77,2.2,9.44,2.2,1.47,0,3.03-.19,4.56-.73,7.4-2.52,11.16-10.55,10.33-22.09-1.85-25.57-7.68-44.25-13.87-63.99-1.21-3.79-2.39-7.62-3.57-11.54,1.34,2.2,2.68,4.34,3.99,6.47,6.92,11.19,14.06,22.76,22.67,38.13,3.86,6.89,8.64,15.43,16.99,20.34,5.32,3.12,11.99,4.05,17.85,2.49,4.78-1.31,8.64-4.18,10.87-8.16,4.59-8.1,2.3-18.01-6.82-29.46Zm-149.27-193.42c-3.73-5.8-7.94-12.4-8.19-19.1-.13-3.22,1.15-6.73,3.28-8.99,.96-1.02,2.52-2.23,4.56-2.3h.16c5.42,0,9.66,7.24,12.27,13.33,9.51,22.07,33.22,81.14,42.1,106.01-2.88-5.06-7.24-11.22-8.11-12.57-9.5-14.86-16.32-26.62-22.92-38-6.66-11.48-13.52-23.34-23.15-38.38Zm1.37,233.82c0,29.94-11.35,52.95-33.79,68.48-.61,.41-1.21,.83-1.85,1.24-44.7,29.36-114.49,21.84-147.55,7.52-7.14-3.09-9.92-7.78-8.93-15.18,2.52-19.06,28.5-49.67,68.48-82.22,14.31-11.64,30.45-23.56,47.95-35.26,18.01-12.08,36.47-23.27,54.96-33.44,13.36,25.44,20.72,55.5,20.72,88.85Zm-40.97-184.24c-8.13-3.89-15.11-7.62-18.46-13.71-3.41-6.22-2.74-14.25-1.59-23.34,.22-1.72,.54-4.11,1.34-5.58,.16-.35,.35-.64,.61-.86,1.91-1.82,6.92,0,11,2.58,20.59,13.04,33.86,26.56,47.89,40.87,10.74,10.97,21.84,22.28,36.89,34.08,1.18,.93,6.25,5.23,10.8,8.5l-46.64-22.43-41.83-20.12Zm129.82,190.36c.35,4.81-.41,10.07-2.9,10.93-1.63,.54-4.62-.61-6.57-1.34-8.58-3.28-15.97-6.47-19.83-12.43-3.79-5.83-3.76-13.74-3.38-22.76l4.16-95.2c1.07,4.9,2.28,9.53,2.47,10.68,3.32,18.81,8.07,33.95,12.66,48.59,5.99,19.13,11.64,37.2,13.39,61.53Zm56.33-22.44c-1.02,1.79-2.84,2.58-4.18,2.96-3,.8-6.73,.29-9.47-1.34-5.8-3.41-9.6-10.23-12.98-16.26-8.74-15.59-15.94-27.26-22.89-38.54-6.92-11.16-14.06-22.73-22.67-38.13-.53-.91-3.2-6.46-5.91-11.61,18.36,20.45,57.62,67.33,72.23,85.67,4.18,5.23,8.58,12.47,5.87,17.25Z"/>
  </g>
</svg>