<svg width="32" height="32" viewBox="0 0 32 32" fill="none" xmlns="http://www.w3.org/2000/svg">
<path d="M16 3C8.82 3 3 8.82 3 16C3 23.18 8.82 29 16 29C23.18 29 29 23.18 29 16C29 8.82 23.18 3 16 3ZM16 5C22.077 5 27 9.923 27 16C27 22.077 22.077 27 16 27C9.923 27 5 22.077 5 16C5 9.923 9.923 5 16 5Z" fill="#025157"/>
<path d="M19.7049 10.2402C19.4449 9.98023 19.0349 9.98023 18.7749 10.2402L13.2049 15.8102L10.2249 12.8302C9.96489 12.5702 9.55489 12.5702 9.29489 12.8302C9.03489 13.0902 9.03489 13.5002 9.29489 13.7602L12.7349 17.2002C12.8669 17.3322 13.0369 17.4002 13.2049 17.4002C13.3729 17.4002 13.5429 17.3322 13.6749 17.2002L20.1449 10.7302C20.4049 10.4702 20.4049 10.0602 20.1449 9.80023L19.7049 10.2402Z" fill="#00a19b"/>
<path d="M12 20H20V22H12V20Z" fill="#19d3c5"/>
</svg>
