<?xml version="1.0" encoding="UTF-8"?>
<svg id="image" xmlns="http://www.w3.org/2000/svg" viewBox="0 0 867.3 703.2">
  <defs>
    <style>
      .cls-1 {
        fill: #19d3c5;
      }

      .cls-2 {
        stroke: #273461;
        stroke-width: .96px;
      }

      .cls-2, .cls-3, .cls-4, .cls-5 {
        fill: none;
        stroke-linecap: round;
        stroke-linejoin: round;
      }

      .cls-6, .cls-7 {
        fill: #fff;
      }

      .cls-7, .cls-8, .cls-9, .cls-10 {
        fill-rule: evenodd;
      }

      .cls-11 {
        fill: #465ba6;
      }

      .cls-12 {
        fill: #d2e6fa;
      }

      .cls-13 {
        fill: #00a19b;
      }

      .cls-14, .cls-10 {
        fill: #4a2a1a;
      }

      .cls-15, .cls-9 {
        fill: #f1c8a9;
      }

      .cls-16 {
        fill: #dfe1df;
      }

      .cls-3 {
        stroke: #0d367f;
        stroke-width: 2.03px;
      }

      .cls-8 {
        fill: #e7c8aa;
      }

      .cls-4 {
        stroke: #025157;
        stroke-width: 5.79px;
      }

      .cls-17 {
        fill: #fcbda1;
      }

      .cls-18 {
        fill: #025157;
      }

      .cls-5 {
        stroke: #b4c5d6;
        stroke-width: 1.79px;
      }
    </style>
  </defs>
  <path class="cls-16" d="M.91,269.58C12.78,141.6,81.48,22.5,241.96,2.34c237-29.77,329.24,234.17,426.54,225.94,0,0,201.86-21.09,198.77,191.13-3.09,212.22-303.82,263.38-591.18,190.08C142.38,575.38-13.37,423.68,.91,269.58Z"/>
  <ellipse class="cls-16" cx="458.28" cy="669.97" rx="294.77" ry="33.23"/>
  <path class="cls-1" d="M363.96,661.83l223.39,1.53c-8.14-60.05-11.7-81.42-9.56-144.04,4.46-85.27,152.09-158.47,111.74-331.95C658.98,56.03,523.84-.48,369.26,40.92c-70.09,18.77-122.86,59.38-137.73,130.4-.32,1.51-2.06,18.76-2.36,20.3-3.6,18.54,6.16,78.78-2.88,93.27-21.93,35.15-39.59,51.54-45.67,55.7-16.22,11.09-16.79,38.84,9.78,48.79,20.74,7.77,18.28,4.38,18.37,19.98,.06,9.64-2.42,14.07-5.27,19.37-3.64,6.77-5.11,7.83-1.72,15.41,3.47,7.75,15.21,12.79,15.21,12.79,0,0-13.45,9.48,.31,28.61,3.03,4.21,8.98,6.48,9.78,9.84,4.22,17.89,2.93,17.16,2.86,23.88-.1,8.62,1.19,42.64,43.73,50.01,7.94,1.38,41.55,1.14,75.25-.71,5.95,43.42,5.43,56.35,15.03,93.27Z"/>
  <path class="cls-18" d="M496.06,412.52c17.02-2.64,50.52-15.07,52.7-71.9,0,0-46.91,5.8-57.34,65.76-3.12,6.61-14.48,25.73-22.35,45.97,3.78-17.35,1.12-48.29-32.1-73.45,0,0-22.14,55.72,26.44,88.45-4.74,12.95-5.97,18.1-10.79,34.06,2.78,2.23-.35,15.59,2.29,16.67,4.88-16.35,10.06-36.63,14.88-49.87,15.27,6.89,53.5,18.64,91.46-27.15,0,0-43.83-16.47-86.12,13.92,8.81-22.7,18.45-37.32,20.92-42.46Z"/>
  <g>
    <path class="cls-13" d="M404.89,517.66s23.52-60.29-10.25-46.98c0,0-.69-38.57-23.78-18.1,0,0,3.86-36.72-20.16-20.85l-4.9,11.14s5.49-28.75-11.88-31.71c0,0-12.81,3.32-14.11,14.62,0,0,3.1-31.57-23.37-33.09,0,0-11.59,1.38-2.64,19.8,0,0-14.33-29.38-26.46-17.18,0,0,105.7,88.56,137.55,122.35Z"/>
    <path class="cls-13" d="M403.11,519.81s-57.87,28.96-47.72-5.89c0,0-38.47,2.86-20.21-22.01,0,0-36.21,7.22-22.61-18.16l10.64-5.9s-28.12,8.11-32.67-8.92c0,0,2.13-13.07,13.26-15.39,0,0-31.15,5.99-35.1-20.23,0,0,.31-11.66,19.48-4.45,0,0-30.57-11.56-19.55-24.76,0,0,97.91,97.11,134.48,125.71Z"/>
    <path class="cls-18" d="M281.74,407.01s88.36,68.23,123.16,110.65l-2.27,2.38s-51.01-43.53-120.88-113.03Z"/>
    <path class="cls-18" d="M382.74,502.55s63.58,60.07,58.92,109.37l7.02-16.05s-9.19-51.1-60.36-94.99l-5.58,1.67Z"/>
  </g>
  <path class="cls-18" d="M465.52,210.06c-30.33,25.46-36.77,53.56-36.96,72.28-8.35-22.48-17.43-43.48-26.43-62.43,58.75-45.45,26.47-89.84,26.47-89.84-28.93,25.21-35.39,52.47-35.62,71.16-.04-.08-.08-.17-.13-.25-12.77-25.24-25.71-47.73-37.2-66.4,52.75-57.34,11.28-95.96,11.28-95.96-25.77,33.06-24.74,63.41-20.36,81.51-12.48-19.45-22.34-33.18-26.94-39.42-24.6-60.27-76.74-60.46-76.74-60.46,15.92,58.71,51.1,64.74,68.08,63.98,3.62,4.84,14.29,19.41,28.26,41.22-47.99-22.9-83.91,1.96-83.91,1.96,47.59,39.84,80.25,23.23,93.23,12.91,11.24,18.31,23.84,40.28,36.3,64.91,1.29,2.56,2.6,5.18,3.9,7.83-44.18-35.77-86.66-17.14-86.66-17.14,42.3,52.13,80.07,36.09,92.24,28.68,9.42,19.9,18.93,42.09,27.55,65.84-42.72-34.1-84.06-16.86-84.06-16.86,38.89,49.76,77.15,37.68,91.52,30.26,17.38,51.61,30.44,112.96,28.5,170.72-.08,2.5-1.02,2.71,1.48,2.8,.5,.02,.98-.05,1.44-.18,1.82-.54,3.17-2.19,3.24-4.19,2-59.5-10.9-119.13-28.82-171.98,62.55-44.88,30.34-90.96,30.34-90.96Z"/>
  <g>
    <path class="cls-4" d="M443.09,649.62s-9.16-247.31,118.25-400.89"/>
    <g>
      <path class="cls-6" d="M510.08,215.79c13.01,16.06,51.88,20.12,51.88,20.12,0,0,4.09-38.86-8.92-54.92-13.01-16.06-26.34-12.86-38.21-3.25-11.86,9.61-17.76,21.99-4.75,38.05Z"/>
      <path class="cls-6" d="M589.42,297.4c1.08-20.64-25.08-49.67-25.08-49.67,0,0-29.05,26.13-30.13,46.78-1.08,20.64,10.97,27.18,26.21,27.98,15.25,.8,27.91-4.45,28.99-25.09Z"/>
      <path class="cls-6" d="M520.44,283.71c19.88-5.67,38.86-39.82,38.86-39.82,0,0-34.14-19.01-54.02-13.34-19.88,5.67-22.16,19.19-17.97,33.87,4.19,14.68,13.25,24.96,33.13,19.3Z"/>
      <path class="cls-6" d="M582.91,182.59c-14.79,14.45-15.22,53.52-15.22,53.52,0,0,39.07,.47,53.86-13.97,14.79-14.45,10.36-27.42-.31-38.34-10.67-10.92-23.54-15.65-38.32-1.2Z"/>
      <path class="cls-6" d="M624,236.13c-18.96-8.25-55.31,6.09-55.31,6.09,0,0,14.3,36.36,33.26,44.61,18.96,8.25,29.3-.75,35.39-14.75,6.09-14,5.61-27.7-13.34-35.95Z"/>
      <circle class="cls-17" cx="563.91" cy="242.82" r="16.57" transform="translate(121.53 668.56) rotate(-67.2)"/>
    </g>
  </g>
  <g>
    <path class="cls-4" d="M447.03,561.84s-21.87-159.23-129.92-254.63"/>
    <g>
      <path class="cls-6" d="M263,356.08c-5.4-24.05,12.2-61.75,12.2-61.75,0,0,32.02,26.56,37.42,50.62,5.4,24.05-4.17,33.41-17.87,36.48-13.7,3.07-26.35-1.3-31.75-25.35Z"/>
      <path class="cls-6" d="M303.72,344.79c-18.34-16.47-25.84-57.4-25.84-57.4,0,0,41.49,3.09,59.83,19.57,18.34,16.47,15.96,29.64,6.58,40.09-9.39,10.45-22.23,14.21-40.56-2.26Z"/>
      <path class="cls-6" d="M338.87,309.46c-24.57,2.04-59.49-20.56-59.49-20.56,0,0,30.71-28.07,55.27-30.11,24.57-2.04,32.52,8.72,33.69,22.71,1.16,13.99-4.9,25.92-29.47,27.97Z"/>
      <path class="cls-17" d="M284.36,300.53c-3.84,5.28-10.75,7.36-16.85,5.02-8.99-3.46-18.91-10.77-10.79-25.55,0,0,12.25-24.99,31.32-4.14,4.63,5.06,5.03,12.69,1,18.24l-4.68,6.44Z"/>
    </g>
  </g>
  <circle class="cls-3" cx="771.72" cy="469.48" r="11.03" transform="translate(-120.92 331.06) rotate(-22.5)"/>
  <circle class="cls-3" cx="145.82" cy="144.66" r="11.03" transform="translate(-28.6 253.15) rotate(-76.65)"/>
  <circle class="cls-3" cx="120.97" cy="583.63" r="11.03"/>
  <g>
    <g>
      <path class="cls-11" d="M488.12,630.47s-18.2,41.08,21.63,44.71c13.01,1.19,59.78,6.18,74.11,5.69,14.02-.48,24.78-12.6,23.61-26.58l-2.23-26.56c-.4-4.78-5.5-7.65-9.79-5.52l-33.91,16.86-51.58-28.68,5.4,36.38-27.25-16.3Z"/>
      <path class="cls-10" d="M539.79,493.89s-8.08-.03-12.03,15.32c-3.17,12.34-15.33,38.01,4.92,39.91,6.02,.57,34.11-1.04,38.93-1.27,5.45-.27-2.99-24.97-5.05-29.69-2.52-5.77-5.27-11.99-5.46-12.13-.37-.26-21.31-12.14-21.31-12.14Z"/>
      <path class="cls-9" d="M605.34,588.98c5.13,7.52,13.67,10.8,23.02,5.9l39.86-32.76-9.43-5.16-33.53,19.49-19.92,12.54Z"/>
      <path class="cls-15" d="M658.86,557l9.3-1.36c1.86-.27,3.75,.13,5.34,1.14l6.42,4.08c2.24,1.42,2.37,4.64,.25,6.23h0l-11.78,1.05c-2.6,.23-5.37-.57-7.75-2.24l-3.96-2.79,2.18-6.11Z"/>
      <path class="cls-7" d="M583.24,540.06l35.49,29.69,5.76,3.93,23.14-11.42,10.57,11.86-27.85,23.04s-11.45,6.4-22.59-2.44c-11.14-8.84-41.84-32.83-41.84-32.83l-5.62-15.53,22.94-6.31Z"/>
      <path class="cls-9" d="M492.28,586.31c-5.13,7.52-13.67,10.8-23.02,5.9l-39.86-32.76,9.43-5.16,33.53,19.49,19.92,12.54Z"/>
      <path class="cls-15" d="M438.76,554.33l-9.3-1.36c-1.86-.27-3.75,.13-5.34,1.14l-6.42,4.08c-2.24,1.42-2.37,4.64-.25,6.23h0l11.78,1.05c2.6,.23,5.37-.57,7.75-2.24l3.96-2.79-2.18-6.11Z"/>
      <path class="cls-7" d="M514.38,537.39l-35.49,29.69-5.76,3.93-23.13-11.42-10.57,11.86,27.85,23.04s11.45,6.4,22.59-2.44c11.14-8.84,41.84-32.83,41.84-32.83l5.62-15.53-22.94-6.31Z"/>
      <path class="cls-7" d="M514.38,537.39c1.84-2.83,17.19-6.42,28.88-9.8l4.67,.63,28.4,7.05c8.58,3.62,13.03,13.06,10.38,22.02l1.46,25.04c-.54,24.97,.06,35.23,3.22,62.75-34.28,15.15-72.02,11.61-84.07-3.81-.81-44.1-.88-69.36,7.05-103.88Z"/>
      <path class="cls-15" d="M532.65,530.61s.31,19.75,13.81,19.78c13.5,.03,13.84-19.26,13.84-19.26l-12.57-4.81-15.08,4.28Z"/>
      <path class="cls-8" d="M540.78,515.43s-.76,8.82-1.38,16.12c-.17,1.95,.72,3.83,2.31,4.92,1.6,1.09,3.66,1.23,5.39,.35,.57-.29,1.12-.56,1.64-.83,2.38-1.2,3.86-3.67,3.82-6.35-.12-6.86-.34-19.35-.34-19.35l-11.44,5.13h0Z"/>
      <path class="cls-9" d="M538.04,513.09c.34,1.94-.66,3.67-2.25,3.86s-3.15-1.22-3.49-3.16c-.34-1.94,.66-3.66,2.25-3.86s3.15,1.22,3.49,3.16Z"/>
      <path class="cls-15" d="M550.48,500.06c6.93,5.44,6.28,9.91,6.03,13.8,.05,5.12-3.73,10.36-8.63,12.09-4.17,1.47-8.75-.75-10.47-4.83-1.86-4.41-3.01-10.72-1.24-15.13,2.29-8.76,11.68-7.95,14.31-5.93Z"/>
      <path class="cls-10" d="M568.9,514.66s-7.3-12.89-10.71-16.4c-4.58-4.71-12.24-9.81-19.34-4.17,0,0,5.47,11.75,21.49,19.71l8.56,.86Z"/>
      <path class="cls-9" d="M559.82,515.46c-.69,1.84-2.43,2.82-3.9,2.18-1.46-.64-2.09-2.65-1.41-4.49s2.43-2.82,3.9-2.18c1.46,.64,2.09,2.65,1.41,4.49Z"/>
      <ellipse class="cls-12" cx="544.83" cy="680.9" rx="90.21" ry="10.79"/>
      <path class="cls-14" d="M514.17,664.18s-17.06,4.48-24.76,5.4-12.78,7.23-10.02,13.02,21.54,2.96,27.46,2.41c5.92-.56,20.93-11.51,20.93-11.51l-13.61-9.32Z"/>
      <path class="cls-14" d="M569.5,682.71s19.71,1.94,27.32,3.45c7.61,1.51,14.39-2.92,13.56-9.28-.82-6.36-19.57-9.49-25.37-10.79-5.8-1.3-23.46,4.46-23.46,4.46l7.96,12.15Z"/>
      <path class="cls-11" d="M613.04,620.37c-11.18-8.48-59.49,9.48-106.38,31.99l9.76,26.87c35.78-.92,88.21-16.67,90.02-17.35,23.59-8.83,21.95-25.49,19.62-30.54-2.94-6.39-13.03-10.98-13.03-10.98Z"/>
      <path class="cls-11" d="M473.79,619.68c-9.06,2.54-14.83,11.75-12.62,20.89,1.27,5.24,5.15,10.65,14.15,14.87,25.39,11.92,95.91,29.53,95.91,29.53l16.66-24.81-90.83-41.57c-5.15-2.36-11-2.66-16.37-.84l-6.9,1.94Z"/>
      <path class="cls-2" d="M509.75,655.39c1.52-2.97,27.69-15.18,33.8-17.76"/>
      <line class="cls-2" x1="533.05" y1="675.18" x2="587.89" y2="667.81"/>
    </g>
    <line class="cls-5" x1="588.41" y1="579.14" x2="583.34" y2="566.8"/>
    <line class="cls-5" x1="511.31" y1="567.18" x2="508.51" y2="578.38"/>
  </g>
  <polygon class="cls-13" points="349.69 568.56 396.78 567.18 356.07 614 349.69 568.56"/>
</svg>