<?xml version="1.0" encoding="UTF-8"?>
<svg id="Layer_1" data-name="Layer 1" xmlns="http://www.w3.org/2000/svg" viewBox="0 0 1441 975.75">
  <defs>
    <style>
      .cls-1 {
        fill: #00a19b;
      }

      .cls-2 {
        fill: #025157;
      }
    </style>
  </defs>
  <g>
    <path class="cls-2" d="M0,678.46H81.25v29.41H29.62v19.54h44.02v29.41H29.62v19.34h50.81v29.62H0v-127.33Z"/>
    <path class="cls-2" d="M217.63,759.92l-1.03,.41,28.38,45.26h-34.97l-26.12-41.76h-13.16v41.76h-29.42v-126.92h58.42c23.45,0,42.58,19.13,42.58,42.58,0,17.07-10.08,31.88-24.68,38.67Zm-4.73-38.67c0-7.2-5.97-13.16-13.16-13.16h-29v26.12h29c7.2,0,13.16-5.76,13.16-12.96Z"/>
    <path class="cls-2" d="M300.96,678.46h29.41v127.12h-29.41v-127.12Z"/>
    <path class="cls-2" d="M503.99,678.46l-56.77,60.06,56.16,67.06h-37.64l-41.96-50.19v50.19h-29.41v-127.12h29.41v43.81l39.7-43.81h40.52Z"/>
    <path class="cls-2" d="M629.06,678.46l48.75,127.12h-31.68l-9.87-26.13h-51.43l-9.87,26.13h-31.68l48.96-127.12h36.82Zm-4.11,71.58l-14.4-37.23-14.19,37.23h28.59Z"/>
    <path class="cls-2" d="M900.8,768.56l26.13,16.25c-12.34,14.6-30.03,23.04-48.96,23.04-35.59,0-64.39-29.62-64.39-65.82s28.8-65.62,64.39-65.62c17.89,0,34.97,7.61,47.1,20.78l-25.1,17.48c-5.14-5.76-12.96-8.84-22.01-8.84-18.51,0-33.53,16.25-33.53,36.2s15.02,36.2,33.53,36.2c9.46,0,16.86-2.88,22.83-9.67Z"/>
    <path class="cls-2" d="M1055.91,678.46l48.75,127.12h-31.68l-9.87-26.13h-51.43l-9.87,26.13h-31.68l48.96-127.12h36.82Zm-4.11,71.58l-14.4-37.23-14.19,37.23h28.59Z"/>
    <path class="cls-2" d="M1234.67,759.92l-1.03,.41,28.38,45.26h-34.97l-26.12-41.76h-13.16v41.76h-29.42v-126.92h58.42c23.45,0,42.58,19.13,42.58,42.58,0,17.07-10.08,31.88-24.68,38.67Zm-4.73-38.67c0-7.2-5.97-13.16-13.16-13.16h-29v26.12h29c7.2,0,13.16-5.76,13.16-12.96Z"/>
    <path class="cls-2" d="M1441,742.02c0,36-28.59,65.21-63.77,65.21s-63.56-29.21-63.56-65.21,28.59-65,63.56-65,63.77,29.21,63.77,65Zm-30.65,0c0-19.54-14.81-35.59-33.12-35.59s-32.91,16.05-32.91,35.59,14.81,35.79,32.91,35.79,33.12-16.05,33.12-35.79Z"/>
  </g>
  <g>
    <path class="cls-2" d="M429.84,893.59c0-.66,.16-1.17,.49-1.54,.33-.37,.81-.55,1.43-.55h18.57c3.02,0,5.79,.53,8.29,1.6,2.5,1.06,4.66,2.53,6.46,4.39,1.81,1.86,3.2,4.04,4.19,6.55,.99,2.5,1.48,5.21,1.48,8.12v13.44c0,2.91-.5,5.63-1.51,8.15-1.01,2.52-2.41,4.71-4.22,6.58-1.8,1.86-3.95,3.31-6.46,4.36-2.5,1.05-5.23,1.57-8.17,1.57h-10.07v26.07c0,1.43-.62,2.15-1.87,2.15h-6.69c-1.28,0-1.92-.72-1.92-2.15v-78.73Zm20.54,42.65c1.51,0,2.88-.27,4.1-.82,1.22-.54,2.25-1.28,3.09-2.21,.83-.93,1.48-2.04,1.95-3.34,.46-1.3,.7-2.71,.7-4.22v-13.27c0-1.55-.23-3-.7-4.34-.46-1.34-1.13-2.49-1.98-3.46-.86-.97-1.89-1.73-3.12-2.27-1.22-.54-2.59-.82-4.1-.82h-10.01v34.74h10.07Z"/>
    <path class="cls-2" d="M500.72,952.24c0-.78,.12-1.38,.35-1.8,.23-.43,.73-.64,1.51-.64h6.69c.7,0,1.17,.18,1.43,.53s.38,.89,.38,1.63v2.85c0,2.06,.34,3.77,1.01,5.15,.68,1.38,1.53,2.49,2.53,3.35,1.01,.85,2.1,1.46,3.29,1.83,1.19,.37,2.28,.55,3.29,.55,1.36,0,2.66-.25,3.92-.76,1.26-.5,2.37-1.19,3.32-2.06,.95-.87,1.71-1.92,2.26-3.14,.56-1.22,.84-2.57,.84-4.04,0-1.98-.22-3.7-.67-5.15-.45-1.45-1.19-2.87-2.21-4.25-1.03-1.38-2.36-2.79-4.01-4.25-1.65-1.45-3.66-3.15-6.02-5.09-2.68-2.13-5.12-4.1-7.33-5.91-2.21-1.8-4.1-3.66-5.67-5.58-1.57-1.92-2.78-4.02-3.64-6.32-.85-2.29-1.28-5.02-1.28-8.2,0-2.72,.35-5.12,1.05-7.22,.7-2.09,1.61-3.91,2.73-5.44,1.13-1.53,2.41-2.81,3.84-3.84,1.44-1.03,2.9-1.85,4.39-2.47,1.5-.62,2.94-1.07,4.34-1.34,1.4-.27,2.64-.4,3.73-.4,2.99,0,5.7,.51,8.15,1.54,2.45,1.03,4.54,2.44,6.28,4.25,1.75,1.8,3.1,3.94,4.08,6.4,.97,2.46,1.45,5.15,1.45,8.06v3.67c0,.78-.14,1.31-.41,1.6-.27,.29-.82,.44-1.63,.44h-6.52c-.66,0-1.1-.16-1.34-.47-.23-.31-.35-.82-.35-1.51v-3.67c0-1.32-.22-2.6-.64-3.84-.43-1.24-1.05-2.34-1.87-3.29-.82-.95-1.81-1.72-3-2.3-1.18-.58-2.53-.87-4.04-.87-.97,0-2.02,.17-3.14,.52s-2.18,.94-3.17,1.77c-.99,.84-1.81,1.96-2.48,3.38-.66,1.42-.99,3.17-.99,5.27,0,1.9,.31,3.58,.93,5.04,.62,1.45,1.45,2.78,2.48,3.98,1.03,1.21,2.17,2.32,3.43,3.35,1.26,1.03,2.53,2.05,3.81,3.06,2.91,2.37,5.6,4.54,8.06,6.52,2.46,1.98,4.59,4.05,6.4,6.22,1.8,2.17,3.21,4.6,4.22,7.27,1.01,2.68,1.51,5.88,1.51,9.6,0,2.56-.52,5.02-1.54,7.39-1.03,2.37-2.46,4.45-4.31,6.26-1.84,1.8-4.05,3.24-6.63,4.31-2.58,1.06-5.42,1.6-8.52,1.6s-5.73-.5-8.24-1.51c-2.5-1.01-4.65-2.42-6.43-4.22-1.78-1.8-3.17-3.96-4.16-6.46-.99-2.5-1.48-5.24-1.48-8.23v-3.08Z"/>
    <path class="cls-2" d="M574.45,893.59c0-.66,.16-1.17,.49-1.54,.33-.37,.8-.55,1.43-.55h6.69c.66,0,1.13,.18,1.43,.55,.29,.37,.43,.88,.43,1.54v78.73c0,1.43-.62,2.15-1.86,2.15h-6.69c-1.28,0-1.92-.72-1.92-2.15v-78.73Z"/>
    <path class="cls-2" d="M620.56,902.11c1.03-2.39,2.45-4.46,4.28-6.23,1.82-1.77,4-3.15,6.52-4.16,2.52-1.01,5.27-1.51,8.26-1.51,3.22,0,6.07,.55,8.55,1.66,2.48,1.11,4.57,2.57,6.26,4.39,1.68,1.82,2.96,3.93,3.81,6.31,.86,2.39,1.28,4.86,1.28,7.42v4.95c0,.89-.13,1.52-.38,1.89-.25,.37-.73,.55-1.43,.55h-6.75c-.66,0-1.12-.17-1.4-.52-.27-.35-.4-.93-.4-1.75v-4.83c0-1.32-.23-2.59-.7-3.81-.46-1.22-1.13-2.3-1.98-3.23-.86-.93-1.88-1.67-3.06-2.21-1.19-.55-2.49-.82-3.93-.82s-2.82,.26-4.04,.79c-1.22,.52-2.27,1.24-3.14,2.15-.87,.91-1.56,1.98-2.06,3.2-.5,1.22-.76,2.51-.76,3.87v45.39c0,1.36,.25,2.65,.76,3.87,.5,1.22,1.21,2.3,2.12,3.23,.91,.93,1.98,1.67,3.2,2.21,1.22,.55,2.57,.82,4.04,.82s2.76-.27,3.96-.82c1.2-.54,2.24-1.28,3.11-2.21,.87-.93,1.55-2.01,2.04-3.23,.49-1.22,.73-2.51,.73-3.87v-5.99c0-.89,.16-1.49,.47-1.8,.31-.31,.73-.47,1.28-.47h6.81c.62,0,1.07,.15,1.37,.44,.29,.29,.43,.88,.43,1.77v6.58c0,2.95-.52,5.63-1.57,8.03-1.04,2.41-2.48,4.47-4.31,6.19-1.82,1.73-3.97,3.06-6.43,3.99-2.46,.93-5.09,1.4-7.88,1.4s-5.5-.46-8-1.4c-2.5-.93-4.68-2.26-6.55-3.99-1.86-1.72-3.34-3.79-4.42-6.19-1.09-2.41-1.62-5.08-1.62-8.03v-46.32c0-2.75,.51-5.32,1.54-7.71Z"/>
    <path class="cls-2" d="M691.4,909.82c0-2.95,.55-5.62,1.63-8.03,1.09-2.4,2.56-4.46,4.42-6.17,1.86-1.71,4.04-3.04,6.55-3.99,2.5-.95,5.17-1.43,8-1.43s5.44,.46,7.94,1.4c2.5,.93,4.69,2.26,6.57,3.99,1.88,1.72,3.37,3.79,4.45,6.19,1.09,2.41,1.63,5.08,1.63,8.03v46.38c0,2.95-.55,5.62-1.63,8.03-1.09,2.41-2.57,4.46-4.45,6.17-1.88,1.71-4.07,3.03-6.57,3.96-2.5,.93-5.17,1.4-8,1.4s-5.49-.48-7.97-1.43c-2.49-.95-4.66-2.29-6.52-4.01-1.87-1.73-3.34-3.79-4.42-6.2-1.09-2.41-1.63-5.04-1.63-7.91v-46.38Zm10.48,45.91c0,1.36,.25,2.64,.76,3.84,.5,1.2,1.2,2.26,2.09,3.17,.89,.91,1.95,1.64,3.17,2.18,1.23,.55,2.57,.82,4.05,.82s2.83-.27,4.07-.82c1.24-.54,2.32-1.27,3.23-2.18,.91-.91,1.62-1.97,2.12-3.17,.5-1.2,.76-2.48,.76-3.84v-45.45c0-1.36-.26-2.65-.79-3.87-.53-1.22-1.24-2.29-2.15-3.2-.92-.91-1.98-1.64-3.2-2.18-1.22-.55-2.55-.82-3.98-.82s-2.77,.27-4.02,.82c-1.24,.54-2.31,1.27-3.2,2.18-.9,.91-1.6,1.98-2.12,3.2-.53,1.22-.79,2.51-.79,3.87v45.45Z"/>
    <path class="cls-2" d="M766.71,893.59c0-.66,.15-1.17,.46-1.54,.31-.37,.79-.55,1.45-.55h6.69c.66,0,1.13,.18,1.43,.55,.29,.37,.43,.88,.43,1.54v70.88h20.37c.43,0,.82,.13,1.16,.38,.35,.25,.52,.71,.52,1.37v6.28c0,.66-.17,1.16-.52,1.48-.35,.33-.73,.5-1.16,.5h-28.92c-1.28,0-1.92-.72-1.92-2.15v-78.73Z"/>
    <path class="cls-2" d="M722.47,861.76s-5.38,20.67-5.69,21.04c-.31,.37-.8,.54-1.46,.54h-6.69c-.66,0-1.14-.17-1.43-.54-.29-.37-.43-.89-.43-1.54,0,0,5.37-20.67,5.69-21.04,.31-.34,.8-.54,1.46-.54h6.69c.66,0,1.14,.2,1.43,.54,.29,.37,.43,.89,.43,1.54Z"/>
    <path class="cls-2" d="M823.83,909.82c0-2.95,.54-5.62,1.62-8.03,1.09-2.4,2.56-4.46,4.42-6.17,1.87-1.71,4.05-3.04,6.55-3.99,2.5-.95,5.17-1.43,8-1.43s5.44,.46,7.94,1.4c2.5,.93,4.69,2.26,6.58,3.99,1.88,1.72,3.37,3.79,4.45,6.19,1.09,2.41,1.63,5.08,1.63,8.03v46.38c0,2.95-.55,5.62-1.63,8.03-1.09,2.41-2.57,4.46-4.45,6.17-1.88,1.71-4.07,3.03-6.58,3.96-2.5,.93-5.17,1.4-8,1.4s-5.49-.48-7.97-1.43c-2.48-.95-4.65-2.29-6.52-4.01-1.86-1.73-3.34-3.79-4.42-6.2-1.09-2.41-1.62-5.04-1.62-7.91v-46.38Zm10.47,45.91c0,1.36,.25,2.64,.76,3.84,.5,1.2,1.2,2.26,2.09,3.17,.89,.91,1.95,1.64,3.17,2.18,1.22,.55,2.57,.82,4.04,.82s2.83-.27,4.08-.82c1.24-.54,2.32-1.27,3.23-2.18,.91-.91,1.62-1.97,2.12-3.17,.5-1.2,.76-2.48,.76-3.84v-45.45c0-1.36-.26-2.65-.79-3.87-.52-1.22-1.24-2.29-2.15-3.2-.91-.91-1.98-1.64-3.2-2.18-1.23-.55-2.55-.82-3.99-.82s-2.77,.27-4.01,.82c-1.24,.54-2.31,1.27-3.2,2.18-.89,.91-1.6,1.98-2.12,3.2-.52,1.22-.79,2.51-.79,3.87v45.45Z"/>
    <path class="cls-2" d="M899.24,901.79c1.09-2.4,2.56-4.46,4.42-6.17,1.86-1.71,4.04-3.04,6.55-3.99,2.5-.95,5.17-1.43,8-1.43,3.57,0,6.61,.63,9.13,1.89,2.52,1.26,4.58,2.87,6.17,4.83,1.59,1.96,2.76,4.1,3.5,6.43,.73,2.33,1.1,4.54,1.1,6.63v4.71c0,.89-.13,1.51-.38,1.86-.26,.35-.73,.53-1.43,.53h-6.81c-.66,0-1.13-.16-1.4-.5-.27-.33-.41-.9-.41-1.72v-4.6c0-1.32-.23-2.59-.7-3.81-.46-1.22-1.12-2.3-1.98-3.23-.85-.93-1.87-1.67-3.06-2.21-1.18-.55-2.47-.82-3.87-.82s-2.65,.26-3.87,.79c-1.22,.52-2.29,1.23-3.2,2.12-.92,.89-1.63,1.94-2.15,3.14-.53,1.2-.79,2.48-.79,3.84v45.62c0,1.48,.29,2.82,.87,4.04,.59,1.22,1.34,2.28,2.27,3.17,.93,.89,2,1.58,3.2,2.06,1.2,.49,2.44,.73,3.73,.73,1.36,0,2.63-.26,3.84-.79,1.2-.52,2.25-1.23,3.14-2.12,.89-.89,1.6-1.93,2.12-3.11s.79-2.45,.79-3.81v-13.33h-6.75c-1.2,0-1.8-.6-1.8-1.8v-5.53c0-1.28,.6-1.92,1.8-1.92h15.19c.66,0,1.14,.18,1.45,.55,.31,.37,.47,.88,.47,1.54v20.78c0,2.95-.53,5.62-1.57,8.03-1.05,2.41-2.48,4.46-4.31,6.17-1.82,1.71-3.97,3.03-6.43,3.96-2.46,.93-5.12,1.4-7.94,1.4s-5.37-.45-7.83-1.37c-2.46-.91-4.65-2.21-6.55-3.9-1.9-1.69-3.41-3.73-4.51-6.14-1.11-2.41-1.66-5.12-1.66-8.15v-46.38c0-2.95,.55-5.62,1.63-8.03Z"/>
    <path class="cls-2" d="M1012.07,972.32c.16,.66,.11,1.19-.15,1.57-.25,.39-.65,.58-1.19,.58h-7.33c-.39,0-.79-.12-1.22-.35s-.7-.68-.82-1.34l-2.97-15.25h-19.08l-2.91,15.25c-.12,.66-.39,1.11-.82,1.34-.43,.23-.86,.35-1.28,.35h-7.27c-.55,0-.94-.19-1.2-.58-.25-.39-.3-.91-.14-1.57l17.86-79.08c.15-.66,.42-1.11,.79-1.37,.36-.25,.79-.38,1.25-.38h6.58c.46,0,.87,.13,1.22,.38,.35,.25,.62,.71,.82,1.37l17.86,79.08Zm-30.9-24.27h15.42l-7.22-37.36-.53-6.11-.46,6.11-7.22,37.36Z"/>
  </g>
  <g>
    <polygon class="cls-1" points="276.81 551.87 608.94 551.87 608.94 429.55 399.13 429.55 399.13 349.71 580.91 349.71 580.91 228.23 399.13 228.23 399.13 147.54 612.34 147.54 612.34 26.07 276.81 26.07 276.81 551.87"/>
    <path class="cls-1" d="M1299.23,234.74c-14.35-18.01-59.01-71.41-76.39-90.25,24.26-8.58,47.41-14.67,68.35-17.76,3-.45,5.07-3.22,4.62-6.22-.45-3-3.22-5.04-6.22-4.62-22.16,3.28-46.64,9.76-72.34,18.97-5.8-18.68-35.32-92.1-45.14-114.93C1166.32,6.51,1158.66-.16,1149.39,0c-4.56,.1-8.93,2.14-12.31,5.74-4.18,4.43-6.5,10.74-6.28,16.9,.38,9.69,5.67,17.95,9.92,24.58,9.5,14.86,16.32,26.62,22.92,38,1.24,2.17,2.52,4.34,3.79,6.57-2.87-2.9-5.67-5.74-8.45-8.58-14.51-14.79-28.21-28.76-49.86-42.46-9.79-6.19-18.65-6.66-24.36-1.34-1.28,1.18-2.2,2.52-2.9,3.92-35.01-16.74-73.61-25.76-113.21-25.76-146.94,0-265.86,121.47-265.86,270.96s118.92,271.82,265.86,271.82c78.14,0,151.21-34.81,202.16-95.13l-68.64-42.72c-1.15,1.18-2.33,2.36-3.54,3.54-5.61,5.48-11.73,10.93-18.33,16.16-.48,.38-.96,.77-1.43,1.12-4.27,3.35-8.77,6.57-13.42,9.63-1.43,.96-2.87,1.88-4.34,2.77-.13,.1-.25,.16-.38,.22-9.6,5.87-19.93,11-30.96,14.95-3.54,1.24-7.49,2.49-11.83,3.73-.73,.22-1.47,.41-2.2,.61-2.23,.61-4.53,1.21-6.92,1.79-1.59,.41-3.22,.8-4.88,1.18-1.66,.38-3.35,.77-5.07,1.15-1.72,.38-3.47,.77-5.23,1.12-3.57,.73-7.21,1.47-10.93,2.17-1.88,.35-3.76,.7-5.67,1.05-.96,.16-1.91,.35-2.87,.51-1.94,.35-3.86,.67-5.83,.99-3.89,.67-7.87,1.27-11.86,1.88-2.01,.32-4.02,.61-6.03,.89-6.03,.89-12.11,1.69-18.17,2.45-2.01,.25-4.02,.48-6.06,.73-39.66,4.62-77.15,6.31-91.15,2.81-4.75-1.18-7.84-3.19-9.72-5.67-.96-1.24-1.59-2.61-2.01-4.08-.38-1.47-.57-3-.57-4.59,0-.54,.03-1.12,.06-1.66,.03-.35,.06-.67,.1-1.02,.03-.41,.1-.86,.16-1.27,.96-6.57,3.89-13.42,4.88-18.2,.13-.48,.19-.96,.26-1.4,.35-2.71-.19-4.49-2.61-4.81-11.35-1.4-7.11-16.67-7.11-16.67l6.76-12.43s-.61-.35-1.53-.96c-.51-.29-1.12-.67-1.75-1.12-1.05-.73-2.26-1.59-3.41-2.52-.51-.41-1.05-.86-1.53-1.31-.03,0-.03-.03-.03-.03-.51-.45-.99-.92-1.44-1.4-1.98-2.1-3.12-4.3-1.82-5.96,2.01-2.55,3.67-5.74,5-9.05,.29-.67,.54-1.34,.77-2.01,1.24-3.38,2.14-6.76,2.71-9.63,.13-.54,.26-1.08,.32-1.59,.38-2.1,.57-3.83,.57-4.88,0-.1-.03-.22-.1-.35-.35-.77-1.79-1.72-3.83-2.9-.54-.32-1.12-.67-1.72-.99-1.12-.64-2.33-1.27-3.63-1.98-.41-.22-.83-.45-1.24-.7-1.5-.83-3.06-1.72-4.62-2.68-.77-.45-1.5-.89-2.23-1.37-.73-.48-1.47-.99-2.17-1.5-.29-.19-.57-.38-.83-.61-3.76-2.74-6.92-5.9-8.22-9.34-.13-.26-.19-.48-.29-.73-.06-.19-.1-.41-.16-.61-.06-.32-.13-.61-.16-.92-.06-.41-.1-.83-.1-1.24,0-.7,.1-1.43,.29-2.2,.06-.38,.19-.77,.35-1.15,.51-1.34,1.31-2.74,2.52-4.14,.22-.26,.48-.54,.73-.83,.38-.41,.83-.86,1.27-1.27,1.85-1.72,3.76-3.76,5.67-6.03,.57-.67,1.18-1.4,1.75-2.14,.41-.51,.83-1.05,1.27-1.59,1.18-1.53,2.39-3.12,3.57-4.81,.54-.77,1.08-1.53,1.63-2.3,1.05-1.56,2.14-3.12,3.19-4.75,.51-.8,1.05-1.59,1.56-2.42,.54-.83,1.05-1.66,1.56-2.49,4.11-6.6,8.03-13.45,11.41-19.77,7.43-13.71,12.53-24.71,12.53-24.71l-9.53-19.64-9.09-18.71c.32-1.4,.67-2.84,1.05-4.24,.35-1.34,.73-2.68,1.15-4.02,.41-1.43,.89-2.87,1.37-4.27,.1-.32,.19-.67,.32-.99,.32-.86,.61-1.75,.96-2.61,.57-1.53,1.18-3.06,1.79-4.59,.54-1.31,1.12-2.65,1.69-3.95,.61-1.37,1.21-2.71,1.88-4.08,.61-1.34,1.27-2.68,1.98-4.02,3.89-7.75,8.42-15.3,13.33-22.51,1.47-2.2,2.97-4.37,4.56-6.47,1.53-2.1,3.09-4.18,4.69-6.22,3.95-5.1,8.07-9.92,12.21-14.44,.8-.89,1.63-1.79,2.49-2.65,.8-.89,1.63-1.75,2.49-2.58,.51-.57,1.05-1.12,1.63-1.66,.8-.8,1.56-1.59,2.36-2.33,2.04-2.01,4.05-3.89,6.06-5.64,.92-.83,1.85-1.66,2.74-2.42,1.95-1.66,3.86-3.22,5.74-4.66,.77-.61,1.56-1.18,2.3-1.72,.29-.22,.54-.41,.8-.61,.57-.41,1.18-.83,1.75-1.24,24.29-16.51,52.54-28.21,81.68-28.21,48.46,0,89.84,16.83,119.62,45.94,9.18,8.89,17.25,19.03,24.07,30.16-18.75,10.33-37.43,21.65-55.63,33.86-17.98,12.05-34.72,24.42-49.7,36.66-12.62,10.3-24.01,20.53-33.83,30.48-22.99,23.27-35.68,42.78-37.68,58.02-1.59,12.18,3.89,21.65,15.43,26.65,42.05,18.2,114.39,20.18,157.94-8.42,1.28-.83,2.52-1.69,3.73-2.58,24.1-17.5,36.85-43.77,36.85-76.29,0-34.27-7.72-66.41-22.22-93.95,20.5-10.87,41-20.44,60.96-28.47l-4.46,102.5c-.38,8.42-.89,19.93,5.1,29.17,6.12,9.44,17.12,13.65,25.12,16.71,2.45,.92,5.77,2.2,9.44,2.2,1.47,0,3.03-.19,4.56-.73,7.4-2.52,11.16-10.55,10.33-22.09-1.85-25.57-7.68-44.25-13.87-63.99-1.21-3.79-2.39-7.62-3.57-11.54,1.34,2.2,2.68,4.34,3.99,6.47,6.92,11.19,14.06,22.76,22.67,38.13,3.86,6.89,8.64,15.43,16.99,20.34,5.32,3.12,11.99,4.05,17.85,2.49,4.78-1.31,8.64-4.18,10.87-8.16,4.59-8.1,2.3-18.01-6.82-29.46Zm-149.27-193.42c-3.73-5.8-7.94-12.4-8.19-19.1-.13-3.22,1.15-6.73,3.28-8.99,.96-1.02,2.52-2.23,4.56-2.3h.16c5.42,0,9.66,7.24,12.27,13.33,9.51,22.07,33.22,81.14,42.1,106.01-2.88-5.06-7.24-11.22-8.11-12.57-9.5-14.86-16.32-26.62-22.92-38-6.66-11.48-13.52-23.34-23.15-38.38Zm1.37,233.82c0,29.94-11.35,52.95-33.79,68.48-.61,.41-1.21,.83-1.85,1.24-44.7,29.36-114.49,21.84-147.55,7.52-7.14-3.09-9.92-7.78-8.93-15.18,2.52-19.06,28.5-49.67,68.48-82.22,14.31-11.64,30.45-23.56,47.95-35.26,18.01-12.08,36.47-23.27,54.96-33.44,13.36,25.44,20.72,55.5,20.72,88.85Zm-40.97-184.24c-8.13-3.89-15.11-7.62-18.46-13.71-3.41-6.22-2.74-14.25-1.59-23.34,.22-1.72,.54-4.11,1.34-5.58,.16-.35,.35-.64,.61-.86,1.91-1.82,6.92,0,11,2.58,20.59,13.04,33.86,26.56,47.89,40.87,10.74,10.97,21.84,22.28,36.89,34.08,1.18,.93,6.25,5.23,10.8,8.5l-46.64-22.43-41.83-20.12Zm129.82,190.36c.35,4.81-.41,10.07-2.9,10.93-1.63,.54-4.62-.61-6.57-1.34-8.58-3.28-15.97-6.47-19.83-12.43-3.79-5.83-3.76-13.74-3.38-22.76l4.16-95.2c1.07,4.9,2.28,9.53,2.47,10.68,3.32,18.81,8.07,33.95,12.66,48.59,5.99,19.13,11.64,37.2,13.39,61.53Zm56.33-22.44c-1.02,1.79-2.84,2.58-4.18,2.96-3,.8-6.73,.29-9.47-1.34-5.8-3.41-9.6-10.23-12.98-16.26-8.74-15.59-15.94-27.26-22.89-38.54-6.92-11.16-14.06-22.73-22.67-38.13-.53-.91-3.2-6.46-5.91-11.61,18.36,20.45,57.62,67.33,72.23,85.67,4.18,5.23,8.58,12.47,5.87,17.25Z"/>
  </g>
</svg>